<svg xmlns="http://www.w3.org/2000/svg" width="84" height="84" viewBox="0 0 84 84"><defs><style>.a{fill:none;}.b{fill:#e6e7e9;}</style></defs><g transform="translate(116)"><rect class="a" width="84" height="84" rx="42" transform="translate(-116)"/><path class="b" d="M23.484,24.689c-5.8-1.508-7.667-3.067-7.667-5.494,0-2.786,2.581-4.728,6.9-4.728,4.549,0,6.236,2.172,6.389,5.367h5.648a10.187,10.187,0,0,0-8.2-9.737V4.5H18.884v5.52c-4.958,1.073-8.944,4.293-8.944,9.226,0,5.9,4.881,8.842,12.011,10.554,6.389,1.533,7.667,3.782,7.667,6.159,0,1.763-1.252,4.574-6.9,4.574-5.264,0-7.334-2.351-7.616-5.367H9.48c.307,5.6,4.5,8.74,9.4,9.788V50.5h7.667V45.006c4.983-.946,8.944-3.833,8.944-9.072C35.5,28.676,29.286,26.2,23.484,24.689Z" transform="translate(-96.48 14.5)"/></g></svg>