<svg xmlns="http://www.w3.org/2000/svg" width="84" height="84" viewBox="0 0 84 84"><defs><style>.a{fill:none;}.b{fill:#e6e7e9;}</style></defs><g transform="translate(116)"><rect class="a" width="84" height="84" rx="42" transform="translate(-116)"/><path class="b" d="M16.667,17.917h-6.25v-6.25H6.25v6.25H0v4.167H6.25v6.25h4.167v-6.25h6.25ZM37.5,20A6.25,6.25,0,1,0,35.6,7.792a10.28,10.28,0,0,1,1.875,5.958A10.482,10.482,0,0,1,35.6,19.708,6.229,6.229,0,0,0,37.5,20ZM27.083,20a6.25,6.25,0,1,0-6.25-6.25A6.224,6.224,0,0,0,27.083,20Zm13.792,4.5a7.708,7.708,0,0,1,2.875,5.917v4.167H50V30.417C50,27.208,45.062,25.229,40.875,24.5Zm-13.792-.333c-4.167,0-12.5,2.083-12.5,6.25v4.167h25V30.417C39.583,26.25,31.25,24.167,27.083,24.167Z" transform="translate(-99 20.5)"/></g></svg>