<svg xmlns="http://www.w3.org/2000/svg" width="84" height="84" viewBox="0 0 84 84"><defs><style>.a{fill:none;}.b{fill:#e6e7e9;}</style></defs><g transform="translate(116)"><rect class="a" width="84" height="84" rx="42" transform="translate(-116)"/><g transform="translate(-104.215 16.252)"><path class="b" d="M37.528,35.445c-1.413-.493-3.721-.518-4.742-.9a6.767,6.767,0,0,1-2.195-1c-.366-.432-.366-3.516-.366-3.516A5.69,5.69,0,0,0,31.474,28.3a18.813,18.813,0,0,0,.605-3.393s.832.345,1.16-1.283c.277-1.406.807-2.147.668-3.183s-.732-.79-.732-.79.732-1.049.732-4.614c0-3.676-2.838-7.291-8.148-7.291S17.6,11.376,17.6,15.04c0,3.565.719,4.614.719,4.614s-.593-.247-.732.79.378,1.777.668,3.183c.328,1.641,1.16,1.283,1.16,1.283a19,19,0,0,0,.605,3.393,5.69,5.69,0,0,0,1.249,1.727s0,3.084-.366,3.516a6.514,6.514,0,0,1-2.195.987c-1.009.382-3.317.432-4.742.925a8.735,8.735,0,0,0-5.777,8.291h35.1A8.717,8.717,0,0,0,37.528,35.445Z" transform="translate(4.128 0)"/><path class="b" d="M15.114,27.121s2.841-.1,3.971-1.169c-1.843-2.954-.844-6.4-1.224-9.616s-2.1-5.128-5.552-5.128H12.26c-3.329,0-5.124,1.911-5.5,5.128s.678,7.039-1.213,9.616C6.673,27.033,9.526,27,9.526,27h0a6.723,6.723,0,0,1-.119,2.112,2.933,2.933,0,0,1-1.427.691A26.423,26.423,0,0,0,4.9,30.7a5.316,5.316,0,0,0-2.687,4.676h9.546c.262-1.006,2.057-2.8,3.8-3.746A7.612,7.612,0,0,1,18.5,30.98s.452-.754-1.034-1.043a9.768,9.768,0,0,1-2.283-.842A6,6,0,0,1,15.114,27.121Z" transform="translate(0 2.39)"/><path class="b" d="M27.778,27.121s-2.841-.1-3.971-1.169c1.843-2.954.844-6.4,1.224-9.616s2.1-5.128,5.552-5.128h.048c3.329,0,5.124,1.911,5.5,5.128s-.678,7.039,1.213,9.616C36.219,27.033,33.366,27,33.366,27h0a6.723,6.723,0,0,0,.119,2.112,2.933,2.933,0,0,0,1.427.691,26.423,26.423,0,0,1,3.079.905,5.316,5.316,0,0,1,2.687,4.676H31.131c-.262-1.006-2.057-2.8-3.8-3.746a7.612,7.612,0,0,0-2.936-.654s-.452-.754,1.034-1.043a9.768,9.768,0,0,0,2.283-.842A6,6,0,0,0,27.778,27.121Z" transform="translate(16.932 2.39)"/></g></g></svg>